<svg xmlns="http://www.w3.org/2000/svg" xmlns:xlink="http://www.w3.org/1999/xlink" version="1.0"
  id="Calque_1" x="0px" y="0px" viewBox="0 0 160 160" style="enable-background:new 0 0 160 160;"
  xml:space="preserve"><script xmlns=""/>
<style type="text/css">
	.st0{fill:#FFFFFF;}
	.st1{fill:#00A5A5;}
</style>
<g>
	<g>
		<polygon class="st0" points="39.1,153.8 39.1,153.8 39.1,153.8   "/>
		<path class="st1" d="M97.9,0L39.1,153.8c9,3.4,18.8,5.3,29,5.3c45.4,0,82.3-36.8,82.3-82.3C150.4,41.8,128.6,11.9,97.9,0z"/>
	</g>
	<polygon class="st0" points="40.2,44.3 36.7,56.4 33.1,44.3 9.6,44.3 9.6,51 14.6,51 14.6,65.7 22.7,65.7 22.7,51 27.4,51    33.1,65.7 40.2,65.7 48.4,44.3  "/>
	<polygon class="st0" points="22.1,87.1 29.6,87.1 30.8,75.4 34.4,87.1 38.9,87.1 42.6,75.4 43.6,87.1 51.1,87.1 47.6,65.7    40.2,65.7 36.7,75 33.1,65.7 25.6,65.7  "/>
	<polygon class="st0" points="76,87.1 83.5,87.1 83.5,75.9 90,87.1 97.5,87.1 97.5,65.7 90,65.7 90,77.6 83.5,65.7 76,65.7  "/>
	<g>
		<path class="st0" d="M107,65.7h-7.9v21.4h9.9c6.3,0,10.8-4,10.8-10.4C119.7,68.8,114.2,65.7,107,65.7 M107.4,80.7h-0.5v-8.3h0.5    c2.8,0,4.6,1.3,4.6,4.3C111.9,79.5,110,80.7,107.4,80.7"/>
		<polygon class="st0" points="121,87.1 135.6,87.1 135.6,81.3 128.8,81.3 128.8,79.2 134.8,79.2 134.8,73.6 128.8,73.6 128.8,71.5     135.4,71.5 135.4,65.7 121,65.7   "/>
		<path class="st0" d="M62.8,64.7c-0.2,0-0.5,0-0.7,0c2.4-1,4.5-2.9,4.7-6.3c0.3-4.4-4.4-6.7-7.1-6.7c-3.3,0-4.6,0.8-4.6,0.8    l0.4-2.3h9.9v-6H49.9L47.8,57c0,0,2.5-0.7,5.2-0.9c2.8-0.2,5.6,0.5,5.5,2.3c-0.1,1.6-3.4,2.3-6.1,1.8c-2.5-0.5-4.8-1.6-4.8-1.6    l-0.9,5.7c0,0,5.1,1.8,8.8,1.7c0.7,0,1.6-0.1,2.5-0.2c-4,1.9-6.7,5.9-6.7,10.6c0,6.5,5.2,11.7,11.7,11.7c6.5,0,11.7-5.2,11.7-11.7    C74.5,69.9,69.3,64.7,62.8,64.7 M62.8,80.9c-2.5,0-4.4-2-4.4-4.4s2-4.4,4.4-4.4c2.5,0,4.4,2,4.4,4.4S65.3,80.9,62.8,80.9"/>
	</g>
	<g>
		<path class="st0" d="M82.3,93.3c1.5,0,2.7,0.4,3.5,1.2c0.8,0.8,1.2,1.9,1.2,3.3c0,1.4-0.4,2.5-1.2,3.3c-0.8,0.8-1.9,1.2-3.5,1.2    h-4.6v6.2h-2V93.3H82.3z M81.7,100.6c1.1,0,2-0.2,2.5-0.7c0.5-0.5,0.8-1.2,0.8-2.1s-0.3-1.6-0.8-2.1c-0.5-0.5-1.4-0.7-2.5-0.7    h-3.9v5.6H81.7z"/>
		<path class="st0" d="M91,93.3v13.4h8v1.7H89V93.3H91z"/>
		<path class="st0" d="M110.9,107.4c-1,1-2.5,1.5-4.4,1.5c-1.9,0-3.5-0.5-4.6-1.4c-1.1-0.9-1.6-2.4-1.6-4.4v-9.7h2v9.7    c0,1.4,0.4,2.4,1.1,3.1c0.7,0.7,1.8,1,3.1,1c1.3,0,2.3-0.3,2.9-1c0.7-0.7,1-1.7,1-3.1v-9.7h2v9.7    C112.4,104.9,111.9,106.4,110.9,107.4z"/>
		<path class="st0" d="M122.8,95.4c-0.7-0.5-1.5-0.7-2.6-0.7c-0.4,0-0.8,0-1.2,0.1c-0.4,0.1-0.8,0.2-1.1,0.4    c-0.3,0.2-0.6,0.5-0.8,0.8c-0.2,0.3-0.3,0.7-0.3,1.2c0,0.5,0.1,0.8,0.4,1.1c0.3,0.3,0.6,0.5,1.1,0.7c0.5,0.2,1,0.3,1.6,0.5    c0.6,0.1,1.2,0.3,1.8,0.4c0.6,0.1,1.2,0.3,1.8,0.5c0.6,0.2,1.1,0.4,1.6,0.8c0.5,0.3,0.8,0.7,1.1,1.2c0.3,0.5,0.4,1.1,0.4,1.9    c0,0.8-0.2,1.5-0.5,2.1c-0.4,0.6-0.8,1-1.4,1.4c-0.6,0.4-1.2,0.6-1.9,0.8c-0.7,0.2-1.4,0.2-2.1,0.2c-0.8,0-1.6-0.1-2.4-0.3    c-0.8-0.2-1.4-0.5-2-1c-0.6-0.4-1-1-1.4-1.7c-0.3-0.7-0.5-1.5-0.5-2.4h1.9c0,0.6,0.1,1.2,0.4,1.6c0.2,0.5,0.6,0.8,1,1.1    s0.9,0.5,1.4,0.7c0.5,0.1,1.1,0.2,1.7,0.2c0.5,0,0.9,0,1.4-0.1c0.5-0.1,0.9-0.2,1.2-0.4c0.4-0.2,0.7-0.5,0.9-0.8    c0.2-0.4,0.3-0.8,0.3-1.4c0-0.5-0.1-0.9-0.4-1.3c-0.3-0.3-0.6-0.6-1.1-0.8s-1-0.4-1.6-0.5c-0.6-0.1-1.2-0.3-1.8-0.4    c-0.6-0.1-1.2-0.3-1.8-0.5c-0.6-0.2-1.1-0.4-1.6-0.7c-0.5-0.3-0.8-0.7-1.1-1.1c-0.3-0.5-0.4-1-0.4-1.7c0-0.8,0.2-1.4,0.5-2    c0.3-0.6,0.7-1,1.2-1.4c0.5-0.4,1.1-0.6,1.8-0.8c0.7-0.2,1.3-0.3,2-0.3c0.8,0,1.5,0.1,2.2,0.3c0.7,0.2,1.2,0.5,1.7,0.9    c0.5,0.4,0.9,0.9,1.2,1.5c0.3,0.6,0.4,1.3,0.5,2.2h-1.9C123.8,96.7,123.4,95.9,122.8,95.4z"/>
	</g>
</g>
<g>
</g>
<g>
</g>
<g>
</g>
<g>
</g>
<g>
</g>
<g>
</g>
<g>
</g>
<g>
</g>
<g>
</g>
<g>
</g>
<g>
</g>
<g>
</g>
<g>
</g>
<g>
</g>
<g>
</g>
</svg>